# xmcd
#
# Track frame offsets:
#	182
#	12837
#	31715
#	45415
#	59187
#	77232
#	95727
#	108667
#	127720
#	139272
#	155890
#	172172
#
# Disc length: 2520 seconds
#
# Revision: 6
# Processed by: cddbd v1.5.2PL0 Copyright (c) Steve Scherf et al.
# Submitted via: EZCDAudioConverter 2.4.0.1
#
DISCID=a409d60c
DTITLE=João Paulo and Daniel - João Paulo and Daniel Vol.5 (1994)
DYEAR=1994
DGENRE=Sertanejo
TTITLE0=O Cheiro Dela
TTITLE1=Voce e Minha Fantasia
TTITLE2=Eu Quero Seu Amor Pra Mim
TTITLE3=So Da Voce Na Minha Vida
TTITLE4=Dia De Visita
TTITLE5=Te Cuida Coracao
TTITLE6=Ainda Te Amo
TTITLE7=Saudade
TTITLE8=Deixa Ela Comigo
TTITLE9=Malicia de Mulher
TTITLE10=Rosto Molhado
TTITLE11=Cuida de Mim
EXTD=
EXTT0=
EXTT1=
EXTT2=
EXTT3=
EXTT4=
EXTT5=
EXTT6=
EXTT7=
EXTT8=
EXTT9=
EXTT10=
EXTT11=
PLAYORDER=
